<mxfile host="Electron" agent="Mozilla/5.0 (Windows NT 10.0; Win64; x64) AppleWebKit/537.36 (KHTML, like Gecko) draw.io/27.0.9 Chrome/134.0.6998.205 Electron/35.4.0 Safari/537.36" version="27.0.9">
  <diagram id="cg3U_DIs2j-q_BvvuKoe" name="Page-1">
    <mxGraphModel dx="622" dy="366" grid="1" gridSize="10" guides="1" tooltips="1" connect="1" arrows="1" fold="1" page="1" pageScale="1" pageWidth="850" pageHeight="1100" math="0" shadow="0">
      <root>
        <mxCell id="0" />
        <mxCell id="1" parent="0" />
        <mxCell id="2" value="0" style="ellipse;whiteSpace=wrap;html=1;aspect=fixed;" parent="1" vertex="1">
          <mxGeometry x="220" y="190" width="50" height="50" as="geometry" />
        </mxCell>
        <mxCell id="10" style="edgeStyle=none;html=1;strokeColor=default;endArrow=none;endFill=0;" parent="1" source="3" target="4" edge="1">
          <mxGeometry relative="1" as="geometry" />
        </mxCell>
        <mxCell id="11" value="5" style="edgeLabel;html=1;align=center;verticalAlign=middle;resizable=0;points=[];" parent="10" vertex="1" connectable="0">
          <mxGeometry x="0.3409" y="-2" relative="1" as="geometry">
            <mxPoint x="1" y="-18" as="offset" />
          </mxGeometry>
        </mxCell>
        <mxCell id="3" value="1" style="ellipse;whiteSpace=wrap;html=1;aspect=fixed;" parent="1" vertex="1">
          <mxGeometry x="300" y="120" width="50" height="50" as="geometry" />
        </mxCell>
        <mxCell id="4" value="2" style="ellipse;whiteSpace=wrap;html=1;aspect=fixed;" parent="1" vertex="1">
          <mxGeometry x="375" y="190" width="50" height="50" as="geometry" />
        </mxCell>
        <mxCell id="14" style="edgeStyle=none;html=1;strokeColor=default;endArrow=none;endFill=0;" parent="1" source="5" target="7" edge="1">
          <mxGeometry relative="1" as="geometry" />
        </mxCell>
        <mxCell id="15" value="1" style="edgeLabel;html=1;align=center;verticalAlign=middle;resizable=0;points=[];" parent="14" vertex="1" connectable="0">
          <mxGeometry x="0.3759" y="3" relative="1" as="geometry">
            <mxPoint x="7" y="12" as="offset" />
          </mxGeometry>
        </mxCell>
        <mxCell id="5" value="3" style="ellipse;whiteSpace=wrap;html=1;aspect=fixed;" parent="1" vertex="1">
          <mxGeometry x="343.75" y="270" width="50" height="50" as="geometry" />
        </mxCell>
        <mxCell id="16" style="edgeStyle=none;html=1;strokeColor=default;endArrow=none;endFill=0;" parent="1" source="7" target="2" edge="1">
          <mxGeometry relative="1" as="geometry" />
        </mxCell>
        <mxCell id="17" value="4" style="edgeLabel;html=1;align=center;verticalAlign=middle;resizable=0;points=[];" parent="16" vertex="1" connectable="0">
          <mxGeometry x="0.4927" y="2" relative="1" as="geometry">
            <mxPoint x="-1" y="13" as="offset" />
          </mxGeometry>
        </mxCell>
        <mxCell id="22" style="edgeStyle=none;html=1;strokeColor=default;endArrow=none;endFill=0;" parent="1" source="7" target="4" edge="1">
          <mxGeometry relative="1" as="geometry" />
        </mxCell>
        <mxCell id="23" value="2" style="edgeLabel;html=1;align=center;verticalAlign=middle;resizable=0;points=[];" parent="22" vertex="1" connectable="0">
          <mxGeometry x="0.316" y="3" relative="1" as="geometry">
            <mxPoint x="-8" y="-4" as="offset" />
          </mxGeometry>
        </mxCell>
        <mxCell id="7" value="4" style="ellipse;whiteSpace=wrap;html=1;aspect=fixed;" parent="1" vertex="1">
          <mxGeometry x="256.25" y="270" width="50" height="50" as="geometry" />
        </mxCell>
      </root>
    </mxGraphModel>
  </diagram>
</mxfile>
